Coordinates
nRows=116
nColumns=2
inDegrees=yes
endheader
time	ankle_angle_r	
3.25	 18.779157	
3.3125	 18.741466	
3.375	 18.714026	
3.4375	 18.721860	
3.5	 18.725763	
3.5625	 18.740983	
3.625	 18.776287	
3.6875	 18.773876	
3.75	 18.767188	
3.8125	 18.769988	
3.875	 18.742270	
3.9375	 18.724038	
4	 18.727411	
4.0625	 18.744069	
4.125	 18.783770	
4.1875	 18.801802	
4.25	 18.799590	
4.3125	 18.799699	
4.375	 18.782386	
4.4375	 18.769191	
4.5	 18.769972	
4.5625	 18.778370	
4.625	 18.803507	
4.6875	 18.818424	
4.75	 18.820089	
4.8125	 18.816464	
4.875	 18.785867	
4.9375	 18.754546	
5	 18.742311	
5.0625	 18.734720	
5.125	 18.746951	
5.1875	 18.764455	
5.25	 18.767404	
5.3125	 18.773776	
5.375	 18.765364	
5.4375	 18.741634	
5.5	 18.729640	
5.5625	 18.722331	
5.625	 18.738978	
5.6875	 18.768237	
5.75	 18.771534	
5.8125	 18.771623	
5.875	 18.763604	
5.9375	 18.758081	
6	 18.769391	
6.0625	 18.758509	
6.125	 18.776706	
6.1875	 18.818406	
6.25	 18.807975	
6.3125	 18.815100	
6.375	 18.825740	
6.4375	 18.763298	
6.5	 18.721442	
6.5625	 18.737784	
6.625	 18.755601	
6.6875	 18.773431	
6.75	 18.778134	
6.8125	 18.767795	
6.875	 18.767338	
6.9375	 18.766579	
7	 18.757602	
7.0625	 18.746798	
7.125	 18.742328	
7.1875	 18.753849	
7.25	 18.763795	
7.3125	 18.768700	
7.375	 18.779595	
7.4375	 18.765844	
7.5	 18.740959	
7.5625	 18.737019	
7.625	 18.736228	
7.6875	 18.759789	
7.75	 18.790336	
7.8125	 18.782618	
7.875	 18.777286	
7.9375	 18.773140	
8	 18.758861	
8.0625	 18.769461	
8.125	 18.775230	
8.1875	 18.774548	
8.25	 18.791645	
8.3125	 18.799655	
8.375	 18.808202	
8.4375	 18.801397	
8.5	 18.766149	
8.5625	 18.764397	
8.625	 18.774962	
8.6875	 18.762774	
8.75	 18.768526	
8.8125	 18.778325	
8.875	 18.773249	
8.9375	 18.761946	
9	 18.735986	
9.0625	 18.720877	
9.125	 18.732019	
9.1875	 18.753743	
9.25	 18.771976	
9.3125	 18.765350	
9.375	 18.761554	
9.4375	 18.776020	
9.5	 18.759781	
9.5625	 18.737956	
9.625	 18.746151	
9.6875	 18.745381	
9.75	 18.746741	
9.8125	 18.766601	
9.875	 18.780901	
9.9375	 18.791087	
10	 18.785300	
10.0625	 18.766866	
10.125	 18.750702	
10.1875	 18.725413	
10.25	 18.731228	
10.3125	 18.774844	
10.375	 18.785940	
10.4375	 18.757770	
